<svg xmlns="http://www.w3.org/2000/svg" width="200" height="400" viewBox="0 0 200 400">
  <!-- Phone Frame -->
  <defs>
    <linearGradient id="frameGradient" x1="0%" y1="0%" x2="100%" y2="100%">
      <stop offset="0%" style="stop-color:#333333" />
      <stop offset="100%" style="stop-color:#111111" />
    </linearGradient>
    <linearGradient id="screenGradient" x1="0%" y1="0%" x2="100%" y2="100%">
      <stop offset="0%" style="stop-color:#4a6bff" />
      <stop offset="100%" style="stop-color:#00d09c" />
    </linearGradient>
  </defs>
  
  <!-- Phone Body -->
  <rect x="10" y="10" width="180" height="380" rx="30" ry="30" fill="url(#frameGradient)" />
  
  <!-- Phone Screen -->
  <rect x="20" y="40" width="160" height="320" rx="5" ry="5" fill="#ffffff" />
  
  <!-- Phone Details -->
  <circle cx="100" cy="25" r="5" fill="#222222" />
  <rect x="80" y="375" width="40" height="5" rx="2.5" ry="2.5" fill="#222222" />
  
  <!-- Screen Content - Provider Profile -->
  <!-- Header -->
  <rect x="20" y="40" width="160" height="60" fill="url(#screenGradient)" />
  
  <!-- Profile Image -->
  <circle cx="60" cy="70" r="20" fill="#ffffff" />
  
  <!-- Profile Info -->
  <rect x="90" y="60" width="70" height="8" rx="4" ry="4" fill="#ffffff" />
  <rect x="90" y="75" width="50" height="5" rx="2.5" ry="2.5" fill="#ffffff" opacity="0.7" />
  
  <!-- Rating -->
  <rect x="30" y="110" width="140" height="40" rx="5" ry="5" fill="#f8f8f8" />
  <circle cx="45" cy="130" r="8" fill="#4a6bff" />
  <circle cx="65" cy="130" r="8" fill="#4a6bff" />
  <circle cx="85" cy="130" r="8" fill="#4a6bff" />
  <circle cx="105" cy="130" r="8" fill="#4a6bff" />
  <circle cx="125" cy="130" r="8" fill="#4a6bff" />
  
  <!-- Description -->
  <rect x="30" y="160" width="140" height="60" rx="5" ry="5" fill="#f8f8f8" />
  <rect x="40" y="170" width="120" height="5" rx="2.5" ry="2.5" fill="#333333" opacity="0.5" />
  <rect x="40" y="180" width="110" height="5" rx="2.5" ry="2.5" fill="#333333" opacity="0.5" />
  <rect x="40" y="190" width="130" height="5" rx="2.5" ry="2.5" fill="#333333" opacity="0.5" />
  <rect x="40" y="200" width="100" height="5" rx="2.5" ry="2.5" fill="#333333" opacity="0.5" />
  <rect x="40" y="210" width="120" height="5" rx="2.5" ry="2.5" fill="#333333" opacity="0.5" />
  
  <!-- Book Button -->
  <rect x="30" y="240" width="140" height="40" rx="20" ry="20" fill="url(#screenGradient)" />
  <rect x="60" y="255" width="80" height="10" rx="5" ry="5" fill="#ffffff" />
  
  <!-- Contact Button -->
  <rect x="30" y="300" width="140" height="40" rx="20" ry="20" fill="#ffffff" stroke="#4a6bff" stroke-width="2" />
  <rect x="60" y="315" width="80" height="10" rx="5" ry="5" fill="#4a6bff" />
</svg> 